<svg id="Graphic_Elements" data-name="Graphic Elements" xmlns="http://www.w3.org/2000/svg" viewBox="0 0 1200 1200"><metadata><?xpacket begin="﻿" id="W5M0MpCehiHzreSzNTczkc9d"?>
<x:xmpmeta xmlns:x="adobe:ns:meta/" x:xmptk="Adobe XMP Core 6.0-c002 79.164488, 2020/07/10-22:06:53        ">
   <rdf:RDF xmlns:rdf="http://www.w3.org/1999/02/22-rdf-syntax-ns#">
      <rdf:Description rdf:about=""
            xmlns:xmp="http://ns.adobe.com/xap/1.0/"
            xmlns:xmpMM="http://ns.adobe.com/xap/1.0/mm/"
            xmlns:stEvt="http://ns.adobe.com/xap/1.0/sType/ResourceEvent#">
         <xmp:Label>Approved</xmp:Label>
         <xmp:MetadataDate>2022-05-04T09:45:17+07:00</xmp:MetadataDate>
         <xmpMM:InstanceID>xmp.iid:09b06451-6d0e-4ead-8bc2-1a056d89807d</xmpMM:InstanceID>
         <xmpMM:DocumentID>xmp.did:09b06451-6d0e-4ead-8bc2-1a056d89807d</xmpMM:DocumentID>
         <xmpMM:OriginalDocumentID>xmp.did:09b06451-6d0e-4ead-8bc2-1a056d89807d</xmpMM:OriginalDocumentID>
         <xmpMM:History>
            <rdf:Seq>
               <rdf:li>
                  <rdf:Description>
                     <stEvt:action>saved</stEvt:action>
                     <stEvt:instanceID>xmp.iid:09b06451-6d0e-4ead-8bc2-1a056d89807d</stEvt:instanceID>
                     <stEvt:when>2022-05-04T09:45:17+07:00</stEvt:when>
                     <stEvt:softwareAgent>Adobe Bridge 2021 (Macintosh)</stEvt:softwareAgent>
                     <stEvt:changed>/metadata</stEvt:changed>
                  </rdf:Description>
               </rdf:li>
            </rdf:Seq>
         </xmpMM:History>
      </rdf:Description>
   </rdf:RDF>
</x:xmpmeta>
                                                                                                    
                                                                                                    
                                                                                                    
                                                                                                    
                                                                                                    
                                                                                                    
                                                                                                    
                                                                                                    
                                                                                                    
                                                                                                    
                                                                                                    
                                                                                                    
                                                                                                    
                                                                                                    
                                                                                                    
                                                                                                    
                                                                                                    
                                                                                                    
                                                                                                    
                                                                                                    
                           
<?xpacket end="w"?></metadata>
<defs><style>.cls-1{fill:none;}</style></defs><g id="Graphic_Elements-2" data-name="Graphic Elements"><path class="cls-1" d="M599.05,471.14c-4.9-4.2-9.54-8.75-14.42-12.92-2.25-2.72-4.78-5.18-7.28-7.67v-.15a238.68,238.68,0,0,1-27.79-36.87c-.88-1.51-1.74-3-2.6-4.55-3.56.54-7.09,1.17-10.62,1.77a37.14,37.14,0,0,0-3.81.93c-7.54.82-14.91,2.95-22.44,3.92-1.8,6.19-4.38,12.11-6.5,18.17a66.46,66.46,0,0,0-2.93,6.29c-2.71,5.35-5.41,10.7-8.48,15.86a29.52,29.52,0,0,1-1.7,2.49c-2.44,4.45-5.58,8.45-8.25,12.76C521.18,471.25,560.12,471.31,599.05,471.14Z"/><path class="cls-1" d="M475.43,762.75l4.78,0q0-100.23,0-200.47h-4.84Q475.49,662.53,475.43,762.75Z"/><path class="cls-1" d="M471.25,562.27h-.54a31,31,0,0,0-4.72.35c.32,17.49.06,35,.14,52.48q0,73.82,0,147.63h3.62l1.11.28a7.29,7.29,0,0,0,.59-3.12C471.18,694,471.58,628.14,471.25,562.27Z"/><path class="cls-1" d="M461.56,562.19l-4.75.17q.13,100.21,0,200.44l1.32-.06,1.72,0,1.26.39a11.62,11.62,0,0,0,.45-3.14C461.53,694,461.63,628.11,461.56,562.19Z"/><path class="cls-1" d="M520,713.16q0-43.18,0-86.37c-.13-21.35.29-42.72-.24-64.07l0-.38h-4.69l0,.3c-.47,15.65-.15,31.33-.25,47q0,72.47,0,144.94a47.43,47.43,0,0,0,.33,8.42l1.37-.27,1.76,0,1.4,0C520.3,746.27,519.77,729.71,520,713.16Z"/><path class="cls-1" d="M447.52,562.32q.06,100.09.05,200.17l1.8.38,1.16,0,1.64-.66c.17-66.63,0-133.28.08-199.92Z"/><path class="cls-1" d="M501.12,562.18c-1.59,0-3.17.13-4.75.32.25,66.76.09,133.52.09,200.27,1.29,0,2.59,0,3.89,0h.87C501.1,695.88,501.32,629,501.12,562.18Z"/><path class="cls-1" d="M510.86,562.28l-.58,0a17.61,17.61,0,0,0-4.76.45c.45,4.82.16,9.67.24,14.51-.06,61.83.13,123.66-.1,185.48,1.21,0,2.44,0,3.66,0l1.14.12a33,33,0,0,0,.51-4.73C510.86,692.84,511.08,627.56,510.86,562.28Z"/><path class="cls-1" d="M423.52,562.41q-40-.12-80.06,0,.19,100.2,0,200.38l1.89-.17,1.77.27,1-.11c.05-26.62-.13-53.25.09-79.87,18.66.18,37.32,0,56,.1,0-1.47.08-2.92.14-4.37-18.71-.54-37.46-.12-56.19-.22.12-1.59-.15-3.25.36-4.78,18.58.24,37.16,0,55.74.11,0-1.56,0-3.11,0-4.66l-.78.16c-5.22-.32-10.44-.08-15.65-.15-13.23.16-26.49-.34-39.7.25,0-1.58,0-3.15,0-4.72,18.71.06,37.4,0,56.11,0q0-2.35,0-4.68-23.54,0-47.05,0a62.55,62.55,0,0,0-9.08.29c.05-1.63.07-3.26,0-4.87,18.69.08,37.4,0,56.09.05v-4.77c-18.74.12-37.5-.13-56.25.13a21.14,21.14,0,0,0,.22-4.7c18.67.1,37.34,0,56,.06,0-1.52,0-3,0-4.55-18.67-.19-37.33-.1-56,0l-.22-.77c.12-12.2,0-24.41.05-36.62q35.61,0,71.24,0a29,29,0,0,0,4.62-.54l-.44-1.42c.12-.35.34-1,.45-1.38v-1.3a37.92,37.92,0,0,0-7.38-.33c-22.8,0-45.61,0-68.41,0,0-1.58,0-3.15.14-4.71,25.16.14,50.33,0,75.49.07l-.08-1.24c0-1.13,0-2.27,0-3.38q-37.77-.06-75.56,0a43.43,43.43,0,0,1,.17-4.57c25.11.12,50.23,0,75.34.06,0-1.55,0-3.09,0-4.62h-.7c-24.92,0-49.84,0-74.76,0-.1-1.56-.08-3.13-.07-4.69,25.19,0,50.37,0,75.55,0,0-1.12,0-2.25,0-3.35l.15-1.26c-25.3.1-50.61-.12-75.91.1a22.63,22.63,0,0,0,.32-4.73c25.21-.12,50.41.15,75.6-.14l-.41-1.38.68-1.57C424,563.53,423.7,562.78,423.52,562.41Z"/><path class="cls-1" d="M315.49,562.4c.15,66.79,0,133.57,0,200.35h1.11c1.2,0,2.42,0,3.63,0q-.12-78.78,0-157.57c.14-14.13-.29-28.28.22-42.39C318.89,562.13,317.14,562.4,315.49,562.4Z"/><path class="cls-1" d="M438.15,762.76c1.18,0,2.37,0,3.57,0l1.17,0q0-100.2,0-200.42l-4.61-.06C438,629.11,438.28,695.94,438.15,762.76Z"/><path class="cls-1" d="M325,562.31c0,.4-.14,1.2-.18,1.61q0,99.44,0,198.86c1.19,0,2.4,0,3.61,0l1.12,0q-.07-100.15,0-200.3C328.06,562.41,326.54,562.36,325,562.31Z"/><path class="cls-1" d="M311.19,600.72c-.08-12.84.25-25.73-.32-38.56-1.55.06-3.08.1-4.63.13l.05.14c-.27,66.76,0,133.53-.13,200.3l1,0c1.24,0,2.5,0,3.75,0a125.13,125.13,0,0,0,.26-12.7Q311.17,675.42,311.19,600.72Z"/><path class="cls-1" d="M334.17,562.32c.07,66.69,0,133.38.05,200l1.69.55,1.22,0,1.72-.47q.09-100,0-200.09Z"/><path class="cls-1" d="M529.05,562.28l-4.52,0-.52,0q-.15,97.94-.06,195.86a22.72,22.72,0,0,0,.36,4.71c1.6-.08,3.22-.13,4.84-.15C529,695.89,529.15,629.09,529.05,562.28Z"/><path class="cls-1" d="M382.65,428.72c7-4.65,13.74-10.09,18.83-16.84l1.48-1.37H403c10.47-13,18.09-28.74,20-45.39a82.31,82.31,0,0,0,.23-25.74,21.94,21.94,0,0,0-.54-5.17,92.39,92.39,0,0,0-34.14-55.9l-1.44-1-1.38-1c-.5-1.13-2.09-1.51-3.05-2.28-25.73-17.46-60.46-20.28-88.79-7.52a92.72,92.72,0,0,0,49,176.81l2.67-.46C358.77,441.21,371.5,436,382.65,428.72ZM368,314.32c6-.61,11.54,3.1,14.59,8.09a25.57,25.57,0,0,1,1,10.32c-.17.54-.5,1.6-.66,2.13s-.53,1.07-.8,1.61c-1.89,3.44-5.16,5.72-8.67,7.29a34.33,34.33,0,0,1-7.78.27c-5.38-1.67-10.16-5.87-11.27-11.56C352.18,323.94,359.25,314.62,368,314.32Zm-16.92,59.22a48.37,48.37,0,0,1,4.19-4.16,16.65,16.65,0,0,1,11.81-1.83,14.86,14.86,0,0,1,7,25.08A14.76,14.76,0,0,1,360,396.52a15,15,0,0,1-11.17-11.87A15.92,15.92,0,0,1,351.12,373.54Zm-78.36-28.38c-2.56-7.88,2.88-17,10.91-18.67A15,15,0,0,1,300.78,335c3.48,7.48-.53,17.26-8.34,20C284.64,358.31,274.84,353.33,272.76,345.16Zm50,49.67c-2,6.73-8.71,11.93-15.85,11.2-7.55-.49-14-7.35-13.78-14.95-.23-7.9,6.86-15,14.74-14.85,6.82-.29,12.9,4.72,14.87,11.09A36.25,36.25,0,0,1,322.74,394.83Zm-2.3-79.06c-8.65-1-14.86-10.51-12.22-18.84a15,15,0,0,1,9.51-10c9.2-3.58,20.39,4.2,19.8,14.14C337.91,309.86,329.05,317.34,320.44,315.77Z"/><path class="cls-1" d="M872.9,762.75c1.58,0,3.17,0,4.78,0q-17-100.24-34-200.49h-4.65q-32.62,74.15-65.21,148.28-31.62-74.15-63.34-148.26l-5.06,0q32.7,76.38,65.47,152.75c1,2.42-1.29,4.59-2.09,6.77-22.56-53.25-45.51-106.31-68.18-159.51h-5.21C719,617.58,742.93,672.73,766.58,728a37.18,37.18,0,0,1-3,5.71c-4-10.14-8.46-20.08-12.64-30.15q-30-70.62-59.91-141.24h-5.43q37.71,89,75.6,177.84c-.85,1.84-1.7,3.68-2.57,5.52Q719.32,654,680.12,562.28c-1.66,0-3.32,0-5,.07,27.09,63.14,53.94,126.38,81.06,189.52-.8,1.76-1.66,3.5-2.62,5.2q-41.67-97.4-83.32-194.77l-4.92,0q-16.83,100.24-33.89,200.44c1.56,0,3.15,0,4.73,0q16.13-95.91,32.21-191.82a25.32,25.32,0,0,1,3.59,8.13c-10.19,61.27-20.78,122.49-30.87,183.78,1.45,0,2.9-.06,4.35-.07q15.09-88.21,30-176.46c1.29,2.83,3.33,5.71,3.18,8.93Q664.45,679,650.33,762.75c1.6,0,3.19,0,4.8,0Q666.5,695.14,678,627.53c1.56-8.29,2.53-16.7,4.45-24.92,1,3.27,3.63,6.36,2.77,9.93q-12.63,75.13-25.26,150.27c1.42,0,2.83-.07,4.25-.08q12.33-72.51,24.8-145c1.06,3.19,3.25,6.33,2.75,9.81q-11.28,67.62-22.5,135.25c1.49,0,3,0,4.52,0q10.88-64.34,21.9-128.66a91.74,91.74,0,0,1,3.85,8.52c17.25,40.07,34.32,80.2,51.65,120.23,1.75-.08,3.51-.14,5.28-.24,27.75-64,55.9-127.83,83.73-191.79.76,2.71,1.84,5.66,1.36,8.47Q801.27,671,761.05,762.8h4.72L843,587l1.55,9L771.29,762.79h.13c.62-.07,2.42-.1,4.59-.11l69.81-159,1.56,9-65.85,150,5.61,0c13.13-30.38,26.49-60.65,39.67-91C834.3,655,841.25,638,849,621.4c.14,2.92,1.58,6,.71,8.86q-29,66.27-58.07,132.51c1.79,0,3.59-.06,5.39-.12,18.2-41.53,36.26-83.12,54.74-124.52Q862.36,700.43,872.9,762.75Z"/><path class="cls-1" d="M618.2,748.28c-26.64,0-53.27.27-79.9-.15,0-1.3,0-2.6-.1-3.88,25.17.1,50.32,0,75.49,0a37.6,37.6,0,0,0,7.5-.32l-.35-1.19c0-.43,0-1.26,0-1.68l.25-1.17a39.18,39.18,0,0,0-7.5-.29c-23.38,0-46.77,0-70.16,0-1.84-.07-3.78.24-5.52-.48a2.79,2.79,0,0,0-.05-3.45l.41-.7c27.56-.15,55.12,0,82.67,0l-.1-1.3c0-.38,0-1.14,0-1.53l.25-1.42c-4.24-.76-8.59-.16-12.87-.34-23.32-.06-46.65.1-70-.07,0-1.52,0-3,.06-4.55,27.53.06,55.06,0,82.59,0l-.08-.94c0-1.23,0-2.45,0-3.68-27.47.13-55-.22-82.44.18l-.12,0c.1-53-.08-105.93.08-158.89-1.59-.09-3.17-.15-4.74-.21-.25,66.84,0,133.7-.12,200.56l.79,0c27.49-.2,55,.29,82.47-.23a37.84,37.84,0,0,0,4.16.34c0-1.25-.09-2.5-.1-3.73L621,758c-27.52.07-55,0-82.53,0-.09-1.49-.09-3-.12-4.44,27.55-.09,55.09,0,82.63,0,0-1.17-.06-2.33-.09-3.49l.36-1.2A5.75,5.75,0,0,0,618.2,748.28Z"/><path class="cls-1" d="M882.53,762.79c1.48-.06,3-.09,4.48-.13q-16.87-100.14-33.61-200.3l-4.81-.06Q865.54,662.55,882.53,762.79Z"/><path class="cls-1" d="M876.81,562.31q16.91,100.23,33.91,200.42c1.56,0,3.13,0,4.71.06q-16.9-100.26-33.92-200.49Z"/><path class="cls-1" d="M658.13,371.07a113.74,113.74,0,0,0,39.27,26.52l1.07-.19c.18.28.55.84.73,1.13,8.21,2.47,16.43,5.61,25.07,6.05a103.12,103.12,0,0,0,31.76.07,28.28,28.28,0,0,0,6.66-.8c1.23-.23,2.51-.43,3.77-.65,8-2.27,16.07-4.76,23.58-8.49,1-.49,2.05-1,3.11-1.51l.21,0c8.61-4.7,17.16-10.15,24.1-17a53.68,53.68,0,0,0,6.7-6.7c.63-.71,1.28-1.41,1.92-2.11a67.93,67.93,0,0,0,6.63-8c1.58-2.06,3.43-4,4.5-6.39,0-.32,8.13-13.9,9.73-19.86a116.36,116.36,0,0,0,4.82-14.28c7-28.56,2.87-60-12.47-85.24-.43-.83-.84-1.65-1.24-2.46a25.42,25.42,0,0,0-3-4.07c-2.18-4.4-5.58-8.13-8.92-11.7,0,0-5.41-5.23-5.21-5.24-2.57-3.48-6.17-6-9.39-8.79-1.81-1.28-9.72-6.88-10.6-7.49a120.26,120.26,0,0,0-26.8-12.14,136.8,136.8,0,0,0-14.66-3.32,28.79,28.79,0,0,0-7.22-.89c-13.28-.58-26.81-.79-39.76,2.74l0,.45a22.09,22.09,0,0,0-5.36.89,122.13,122.13,0,0,0-22.86,9.82l0,.25a64.73,64.73,0,0,0-9.05,5.67c-2.81,1.37-5.11,3.66-7.6,5.55-2.71,2.41-5.86,4.5-7.74,7.68l-1.16.53-.84.87a5.36,5.36,0,0,0-1.73,2.17,20.75,20.75,0,0,0-4.73,5.46c-3.79,3.95-6.66,8.76-9.54,13.41-16.46,27.35-20.36,61.76-10.91,92.19A114.27,114.27,0,0,0,658,370.92ZM774.34,250.48l.13-.11a18.41,18.41,0,0,1,15.45-4.5c6.86,1,12.6,6.33,14.76,12.82a34.86,34.86,0,0,1,.58,8.1,19.16,19.16,0,0,1-8.1,12.59,18.67,18.67,0,0,1-22.5-1.43l-.13-.12C766.52,271,766.39,257.44,774.34,250.48Zm-12.58,76.75a18.26,18.26,0,0,1,9.67-14.17,18.72,18.72,0,0,1,18.57.66c4.12,2.44,6.64,6.69,8.33,11a29.92,29.92,0,0,1-.08,8.66c-1.56,4.83-4.55,9.39-9.13,11.81a18,18,0,0,1-18.58-.34c-3.32-2-5.6-5.17-7.77-8.28C762.16,333.53,761.36,330.4,761.76,327.23Zm-50.5-100.92c.92-6.08,5.15-11.17,10.47-14.05l2-.6c4.53-1.84,9.35-.92,13.8.68,3.64,2.27,7.12,5.18,8.86,9.22a18.68,18.68,0,0,1-2,18.57c-4.49,6.2-13.14,9.25-20.42,6.61A18.5,18.5,0,0,1,711.26,226.31Zm11.62,99.61.12.1a24.47,24.47,0,0,1,3.36,3.39.64.64,0,0,1,.1.13,18.79,18.79,0,0,1,3.45,12.81,18.48,18.48,0,1,1-23.57-19.49C711.94,321,718.19,322.52,722.88,325.92Zm-43.09-64.78a18.64,18.64,0,0,1,15.75,1.94,18.34,18.34,0,0,1,8.4,17.24c-.46,9.55-9.66,17.56-19.17,16.74-9.57-.17-17.83-8.94-17.57-18.48A18.71,18.71,0,0,1,679.79,261.14Z"/><path class="cls-1" d="M867.45,562.31q16.89,100.23,33.65,200.47c1.59,0,3.18,0,4.78,0q-17-100.23-34-200.48Z"/><path class="cls-1" d="M857.85,562.31q17.13,100.2,34,200.43c1.57,0,3.14,0,4.74,0q-17-100.23-33.91-200.47Z"/><path d="M724,246.74c7.28,2.64,15.93-.41,20.42-6.61a18.68,18.68,0,0,0,2-18.57c-1.74-4-5.22-6.95-8.86-9.22-4.45-1.6-9.27-2.52-13.8-.68l-2,.6c-5.32,2.88-9.55,8-10.47,14.05A18.5,18.5,0,0,0,724,246.74Z"/><path d="M774.53,277.83l.13.12a18.67,18.67,0,0,0,22.5,1.43,19.16,19.16,0,0,0,8.1-12.59,34.86,34.86,0,0,0-.58-8.1c-2.16-6.49-7.9-11.84-14.76-12.82a18.41,18.41,0,0,0-15.45,4.5l-.13.11C766.39,257.44,766.52,271,774.53,277.83Z"/><path d="M684.77,297.06c9.51.82,18.71-7.19,19.17-16.74a18.34,18.34,0,0,0-8.4-17.24,18.43,18.43,0,0,0-28.34,15.5C666.94,288.12,675.2,296.89,684.77,297.06Z"/><path d="M317.73,286.93a15,15,0,0,0-9.51,10c-2.64,8.33,3.57,17.86,12.22,18.84,8.61,1.57,17.47-5.91,17.09-14.7C338.12,291.13,326.93,283.35,317.73,286.93Z"/><path d="M770.54,344.88a18,18,0,0,0,18.58.34c4.58-2.42,7.57-7,9.13-11.81a29.92,29.92,0,0,0,.08-8.66c-1.69-4.34-4.21-8.59-8.33-11a18.72,18.72,0,0,0-18.57-.66,18.26,18.26,0,0,0-9.67,14.17c-.4,3.17.4,6.3,1,9.37C764.94,339.71,767.22,342.91,770.54,344.88Z"/><path d="M365.72,344a34.33,34.33,0,0,0,7.78-.27c3.51-1.57,6.78-3.85,8.67-7.29.27-.54.54-1.07.8-1.61s.49-1.59.66-2.13a25.57,25.57,0,0,0-1-10.32c-3.05-5-8.56-8.7-14.59-8.09-8.79.3-15.86,9.62-13.59,18.15C355.56,338.16,360.34,342.36,365.72,344Z"/><path d="M693.82,335.28a18.46,18.46,0,1,0,36.09,7.07,18.79,18.79,0,0,0-3.45-12.81.64.64,0,0,0-.1-.13A24.47,24.47,0,0,0,723,326l-.12-.1c-4.69-3.4-10.94-5-16.54-3.06A18.38,18.38,0,0,0,693.82,335.28Z"/><path d="M300.78,335a15,15,0,0,0-17.11-8.54c-8,1.71-13.47,10.79-10.91,18.67,2.08,8.17,11.88,13.15,19.68,9.87C300.25,352.29,304.26,342.51,300.78,335Z"/><path d="M360,396.52a15,15,0,0,0,18.12-18,15,15,0,0,0-11-10.93,16.65,16.65,0,0,0-11.81,1.83,48.37,48.37,0,0,0-4.19,4.16,15.92,15.92,0,0,0-2.27,11.11A15,15,0,0,0,360,396.52Z"/><path d="M307.85,376.23c-7.88-.14-15,6.95-14.74,14.85-.23,7.6,6.23,14.46,13.78,14.95,7.14.73,13.84-4.47,15.85-11.2a36.25,36.25,0,0,0,0-7.51C320.75,381,314.67,375.94,307.85,376.23Z"/><path d="M816.32,982.35c-1.81-9.75-4.12-19.41-5.8-29.18l.69-.78c5.55-.34,11.13.13,16.69-.19q0-19.22.09-38.41c0-.33,0-1,.06-1.29-.27-12.65-.2-25.31,0-38q-90.1,0-180.18,0c-24.56,1-49.16.35-73.74.53q-49.49,0-99,0c-5.54-.05-11.12.26-16.62-.52.11,26,0,52,.06,78,6.69-.06,13.39,0,20.08,0-.1.49-.3,1.49-.39,2,0,.09-.07.26-.09.34-8.75,42.36-17.14,84.8-25.74,127.21-3.1,15.88-6.61,31.69-9.43,47.63h29.69q17.79-88.6,35.69-177.18c13.5,0,27,.06,40.51,0,.59,4.44.79,8.92,1,13.39.23,6.29,1.1,12.57,1,18.88-1.36,6.61-3.51,13-5.16,19.59-11.39,41.79-22.66,83.59-34.1,125.37H542c5-17.9,9.69-35.88,14.7-53.77.56,6.64,1,13.31,1.22,20,.25,3.54.54,7.08.74,10.63,0,.91.09,1.84.13,2.79l.07,1.17c.54,6.39.84,12.79,1.27,19.2h34.83c0-.28.11-.84.15-1.12-.14-1.4-.25-2.79-.34-4.16-1.2-18.41-2.45-36.82-3.37-55.24-.06-.82-.16-2.5-.22-3.33-.69-8.81-1.26-17.64-1.65-26.46-.12-1.62-.24-3.22-.32-4.83-.25-3.23-.55-6.46-.57-9.7-.51-6.38-.84-12.77-1.19-19.16-.87-10.2-1.29-20.44-2-30.65a17.26,17.26,0,0,1,.37-6.41q2.19-8.08,4.41-16.16,22,.09,43.92,0a67.9,67.9,0,0,1,15.93-.18c5.36.46,10.75.07,16.13.3,8,.2,15.92,0,23.87.07-.29,9.88-.8,19.75-1.37,29.62l0,.74c-.14,2-.27,3.91-.35,5.89-1,20-1.94,40.07-3.13,60.09-.09,2.78-.26,5.56-.42,8.35-1.1,23-2.18,46-3.59,69l-.06,1.19c0,.54,0,1.62,0,2.16H716c.33-7.23.64-14.45,1.17-21.67,0-.6.11-1.81.15-2.43s0-1.52.06-2.26c.14-4,.41-7.92.67-11.87.73-18.42,1.8-36.82,2.81-55.22q12.48,46.79,25.37,93.45h30.11Q757.07,1059.05,738,988.34c-.44-1.46-.85-2.91-1.24-4.36-2.91-10.41-5.64-20.87-8.51-31.29,3.79-.48,7.59.12,11.39,0,5.6-.16,11.2-.14,16.8,0,8.12.16,16.24.06,24.37.09,1.87,9.84,3.94,19.66,5.89,29.49l.16.79.24,1.15c9.78,48.54,19.45,97.09,29.41,145.59h29.69c-9.86-47.94-19.38-96-29.12-143.91C816.79,984.64,816.56,983.5,816.32,982.35Z"/><path d="M1150,712.42c0-4.4.06-8.81,0-13.21,0-9.88,0-19.76,0-29.65l0-12.28h0V629.8h0c0-3.14,0-6.29,0-9.43V576.26c0-2.1,0-4.19,0-6.29q.11-44.54,0-89.08v-.58c-.1-10.95.21-21.91-.14-32.87-5.11,2.95-10,6.2-15.2,9.05-.78.42-1.54.84-2.28,1.27-12.82,8.21-26,15.88-39,23.84q-20.31,12.3-40.61,24.59c-6,3.45-11.77,7.57-18,10.62-20.35.37-40.73.07-61.08.15-3.62.08-7.23.11-10.84,0-5.95,0-11.89,0-17.83,0q0,25.66,0,51.34c0,.41,0,1.23,0,1.64,0,4.83,0,9.64-.08,14.46l-2.06.72c.52-.15,1.58-.47,2.1-.64q0,13.2,0,26.39c0,6.48,0,13,0,19.44v.76c0,4.74,0,9.48,0,14.22v.43c0,14.91-.09,29.83.06,44.75,6.78.16,13.58.11,20.36.07h16.4c9.66.06,19.32,0,29,.07h.35c5.28-.12,10.55-.06,15.83-.07,3.63.15,7.68-.77,10.81,1.61,10.8,6.84,22.06,13,32.67,20.11,1,.49,1.93,1,2.91,1.53,1.45.82,2.86,1.71,4.29,2.59l1.32.81c3.59,2,7,4.42,10.74,6.12l2.25,1.39.15-.11c.28.25.57.49.86.73l24.25,15h0q16.38,9.93,32.8,19.81c.08-15.35,0-30.71,0-46.06C1150,713.65,1150,712.84,1150,712.42Z"/><path d="M949.06,392.66c1.84-3.94,3.51-8,5.13-12q1.08-3,2.27-5.88a231,231,0,0,0,11-41.68c0-.28.14-.84.18-1.13a229.28,229.28,0,0,0-13.57-119.85l-.54-1.28c-1.91-4.47-4-8.86-6-13.27-2.71-5.64-5.72-11.13-8.91-16.51a237.25,237.25,0,0,0-27.7-37.3A229.19,229.19,0,0,0,839,91.2c-53.17-24.86-116.09-27.67-171.32-7.85l-.72.27a228,228,0,0,0-90.34,60.17,270.16,270.16,0,0,0-27.49,36.69c-2.91,5.4-6,10.73-8.67,16.25-2.25,4.64-4.34,9.35-6.37,14.09l-.5,1.18a227.8,227.8,0,0,0-13.23,47.14c-9.29,1.83-18.59,3.71-27.93,5.26-4.12-7.42-9.36-14.12-14.15-21.11-.06-.06-.16-.19-.21-.25-3.4-3.44-6.29-7.33-9.63-10.81a196.24,196.24,0,0,0-21.68-20l-.58-.46a201.09,201.09,0,0,0-32.71-20.41c-1.06-.52-2.12-1-3.19-1.54q-7.56-3.41-15.31-6.46c-4.73-1.37-9.37-3.05-14.14-4.33a187.61,187.61,0,1,0-94.7,363.05c-.15,6.93-.06,13.85-.07,20.79-12.63.17-25.26,0-37.9.1l-.48-1.82q-21.42-7.9-42.8-15.87a15.68,15.68,0,0,0-6-.77c-9.21.07-18.41,0-27.62,0,5.22,10.7,10.33,21.44,15.51,32.16,1.6,3.51,3.58,6.87,4.75,10.58l.15.3c5.59,10.1,10.09,20.8,15.28,31.13,4.73,9.81,9.39,19.66,14.17,29.45,6.06-1.78,12.2-3.33,18.31-5q4.86-7.89,9.68-15.78l.45-.73a8.37,8.37,0,0,1,4.26-.73c9.28.07,18.55.09,27.82,0a17.91,17.91,0,0,1,4.56.56c-.22,78.05-.07,156.11-.07,234.16h60c-2.29,17.39-4.72,34.76-6.95,52.15q-66,12.67-132.12,25.19l-.63.13c-3.63.46-7.29,1.93-10.93,1.62-9.42-4.61-18.65-9.64-28-14.44-1.15-.48-2.32-1.4-3.64-1Q109,934.79,54.11,945.27l-.64.13L50,946c2.52,21.52,5.4,43,7.89,64.54,26.1-4.77,52.14-9.87,78.21-14.77,12.47-2.52,25.08-4.5,37.47-7.3,6.35-5.61,11.86-12.14,18.16-17.82l.12-.12c2.41-2.68,5-5.25,7.52-7.76a6.37,6.37,0,0,1,3.55-1.63c27.45-5.84,54.87-11.84,82.32-17.71l2.42-.52c13-2.82,26-5.6,39-8.42l.64-.16c8.2-1.72,16.37-3.53,24.57-5.26l.65-.16c1.19-.29,2.39-.55,3.58-.8,3.55-22.15,7.26-44.29,10.87-66.42l.22-1q120.56-.18,241.12-.05c9.21.23,18.45-.51,27.61.42,77.78-.25,155.57,0,233.34-.12,23,.16,46-.26,69,.21-.49-21.44-.09-42.91-.21-64.37-.12-50.36.22-100.73,0-151.1a115.85,115.85,0,0,1,.15-14.79c.13-20.31,0-40.62.05-60.92-.35-29.89-.08-59.79-.15-89.69.05-3,0-6.07,0-9.1-16.56-.09-33.12.19-49.67-.14,4.26-3.76,8.58-7.43,12.64-11.4l2.55-2.72c2.1-1.94,4.14-3.93,6.09-6a230,230,0,0,0,29.29-39.27l.58-.92c3.2-5.49,6.15-11.13,8.93-16.85C948.59,393.6,948.89,393,949.06,392.66ZM310.92,762.8c-1.25,0-2.51,0-3.76,0l-1,0c.12-66.77-.14-133.54.13-200.3l-.05-.14c1.55,0,3.08-.07,4.63-.13.57,12.83.24,25.72.32,38.56q0,74.68,0,149.38A125.13,125.13,0,0,1,310.92,762.8Zm9.32-157.62q0,78.78,0,157.57c-1.21,0-2.43,0-3.63,0h-1.11c0-66.78.11-133.56,0-200.35,1.65,0,3.4-.27,5,.39C320,576.9,320.38,591.05,320.24,605.18Zm9.31,157.6-1.12,0c-1.21,0-2.42,0-3.61,0q.09-99.42,0-198.86c0-.41.13-1.21.18-1.61,1.52.05,3,.1,4.56.17Q329.37,662.62,329.55,762.78Zm9.3-.36-1.72.47-1.22,0-1.69-.55c-.08-66.67,0-133.36-.05-200h4.72Q338.79,662.38,338.85,762.42ZM287.39,433a92.75,92.75,0,0,1,6.52-166.43c28.33-12.76,63.06-9.94,88.79,7.52,1,.77,2.55,1.15,3.05,2.28l1.38,1,1.44,1a92.39,92.39,0,0,1,34.14,55.9,22.48,22.48,0,0,1,.54,5.17,82.31,82.31,0,0,1-.23,25.74c-1.9,16.65-9.52,32.4-20,45.39H403l-1.48,1.37c-5.09,6.75-11.81,12.19-18.83,16.84-11.15,7.28-23.88,12.49-37.11,14.17l-2.67.46A92.33,92.33,0,0,1,287.39,433ZM423.94,566.86c-25.19.29-50.39,0-75.6.14a22.63,22.63,0,0,1-.32,4.73c25.3-.22,50.61,0,75.91-.1l-.15,1.26c0,1.1,0,2.23,0,3.35-25.18,0-50.36,0-75.55,0,0,1.56,0,3.13.07,4.69,24.92,0,49.84,0,74.76,0h.7c0,1.53,0,3.07,0,4.62-25.11-.07-50.23.06-75.34-.06a43.43,43.43,0,0,0-.17,4.57q37.78-.09,75.56,0c0,1.11,0,2.25,0,3.38l.08,1.24c-25.16-.07-50.33.07-75.49-.07-.13,1.56-.12,3.13-.14,4.71,22.8-.08,45.61,0,68.41,0a37.92,37.92,0,0,1,7.38.33v1.3c-.11.35-.33,1-.45,1.38l.44,1.42a29,29,0,0,1-4.63.54q-35.61-.08-71.23,0c0,12.21.07,24.42-.05,36.62l.22.77c18.67-.06,37.33-.15,56,0,0,1.51,0,3,0,4.55-18.68-.08-37.35,0-56-.06a21.14,21.14,0,0,1-.22,4.7c18.75-.26,37.5,0,56.25-.13v4.77c-18.69-.08-37.4,0-56.09-.05,0,1.61,0,3.24,0,4.87a62.55,62.55,0,0,1,9.08-.29q23.52,0,47.05,0,0,2.32,0,4.68c-18.71-.07-37.4,0-56.11,0,0,1.57-.06,3.14,0,4.72,13.21-.59,26.47-.09,39.7-.25,5.21.07,10.43-.17,15.65.15l.78-.16c0,1.55,0,3.1,0,4.66-18.58-.09-37.16.13-55.74-.11-.51,1.53-.24,3.19-.36,4.78,18.73.1,37.48-.32,56.19.22-.06,1.45-.11,2.9-.14,4.37-18.67-.1-37.33.08-56-.1-.22,26.62,0,53.25-.09,79.87l-1,.11-1.77-.27-1.89.17q0-100.18,0-200.38,40-.13,80.06,0c.18.37.52,1.12.69,1.5l-.68,1.57Zm18.95,195.91-1.17,0c-1.2,0-2.39,0-3.57,0,.13-66.82-.12-133.65.13-200.47l4.61.06Q442.86,662.55,442.89,762.77Zm9.28-.53-1.64.66-1.16,0-1.8-.38q-.15-100.08-.05-200.17h4.73C452.18,629,452.34,695.61,452.17,762.24Zm9,.85-1.26-.39-1.72,0-1.32.06q-.06-100.23,0-200.44l4.75-.17c.07,65.92,0,131.84,0,197.76A11.62,11.62,0,0,1,461.15,763.09Zm9.68-.08-1.1-.28H466.1q.12-73.8,0-147.63c-.08-17.49.18-35-.14-52.48a31,31,0,0,1,4.72-.35h.54c.33,65.87-.07,131.75.17,197.62A7.29,7.29,0,0,1,470.83,763Zm9.38-.23-4.78,0q-.1-100.21-.05-200.44h4.84Q480.22,662.56,480.21,762.78Zm2-291.61c2.67-4.31,5.81-8.31,8.25-12.76a29.52,29.52,0,0,0,1.7-2.49c3.07-5.16,5.77-10.51,8.48-15.86a66.46,66.46,0,0,1,2.93-6.29c2.12-6.06,4.7-12,6.5-18.17,7.53-1,14.9-3.1,22.44-3.92a37.14,37.14,0,0,1,3.81-.93c3.53-.6,7.06-1.23,10.62-1.77.86,1.51,1.72,3,2.6,4.55a239.32,239.32,0,0,0,27.79,36.87v.15c2.5,2.48,5,4.95,7.28,7.67,4.88,4.17,9.52,8.72,14.42,12.92C560.12,471.31,521.18,471.25,482.24,471.17Zm18.11,291.57c-1.3,0-2.6,0-3.89,0,0-66.75.16-133.51-.09-200.27,1.58-.19,3.16-.28,4.75-.32.2,66.85,0,133.7.1,200.55Zm10.11.13-1.14-.12c-1.22,0-2.45,0-3.66,0,.23-61.82,0-123.65.1-185.48-.08-4.84.21-9.69-.24-14.51a17.61,17.61,0,0,1,4.76-.45l.58,0c.22,65.28,0,130.56.11,195.86A33,33,0,0,1,510.46,762.87Zm9.24-.07-1.4,0-1.76,0-1.37.27a47.43,47.43,0,0,1-.33-8.42q0-72.47,0-144.94c.1-15.66-.22-31.34.25-47l0-.3h4.69l0,.38c.53,21.35.11,42.72.24,64.07q0,43.19,0,86.37C519.77,729.71,520.3,746.27,519.7,762.8Zm4.61.06a22.72,22.72,0,0,1-.36-4.71q0-97.93.06-195.86l.52,0,4.52,0c.1,66.81,0,133.61.1,200.43C527.53,762.73,525.91,762.78,524.31,762.86ZM621,753.58c-27.54,0-55.08-.05-82.63,0,0,1.48,0,3,.12,4.44,27.51-.08,55,0,82.53,0l-.08,1.12c0,1.23.05,2.48.1,3.73a37.84,37.84,0,0,1-4.16-.34c-27.48.52-55,0-82.47.23l-.79,0c.12-66.86-.13-133.72.12-200.56,1.57.06,3.15.12,4.74.21-.16,53,0,105.92-.08,158.89l.12,0c27.47-.4,55,0,82.44-.18,0,1.23,0,2.45,0,3.68l.08.94c-27.53,0-55.06,0-82.59,0,0,1.51,0,3-.06,4.55,23.31.17,46.64,0,70,.07,4.28.18,8.63-.42,12.87.34l-.25,1.42c0,.39,0,1.15,0,1.53l.1,1.3c-27.55,0-55.11-.1-82.67,0l-.41.7a2.79,2.79,0,0,1,.05,3.45c1.74.72,3.68.41,5.52.48,23.39-.06,46.78,0,70.16,0a39.18,39.18,0,0,1,7.5.29l-.25,1.17c0,.42,0,1.26,0,1.68l.35,1.19a37.6,37.6,0,0,1-7.5.32c-25.17,0-50.32.05-75.49,0,.07,1.28.11,2.58.1,3.88,26.63.42,53.26.13,79.9.15a5.75,5.75,0,0,1,3,.61l-.36,1.2C620.89,751.25,620.91,752.41,621,753.58ZM641.83,233c2.88-4.65,5.75-9.46,9.54-13.41a20.75,20.75,0,0,1,4.73-5.46,5.36,5.36,0,0,1,1.73-2.17l.84-.87,1.16-.53c1.88-3.18,5-5.27,7.74-7.68,2.49-1.89,4.79-4.18,7.6-5.55a64.73,64.73,0,0,1,9.05-5.67l0-.25a122.13,122.13,0,0,1,22.86-9.82,22.09,22.09,0,0,1,5.36-.89l0-.45c12.95-3.53,26.48-3.32,39.76-2.75a28.8,28.8,0,0,1,7.22.9,136.8,136.8,0,0,1,14.66,3.32,120.26,120.26,0,0,1,26.8,12.14c.88.61,8.79,6.21,10.6,7.49,3.22,2.8,6.82,5.31,9.39,8.79-.2,0,5.21,5.24,5.21,5.24,3.34,3.57,6.74,7.3,8.92,11.7a25.42,25.42,0,0,1,3,4.07c.4.81.81,1.63,1.24,2.46,15.34,25.21,19.49,56.68,12.47,85.24a116.36,116.36,0,0,1-4.82,14.28c-1.6,6-9.75,19.54-9.73,19.86-1.07,2.41-2.92,4.33-4.5,6.39a68.75,68.75,0,0,1-6.63,8c-.64.7-1.29,1.4-1.92,2.11a53.68,53.68,0,0,1-6.7,6.7c-6.94,6.86-15.49,12.31-24.1,17l-.22,0c-1,.5-2.06,1-3.1,1.51-7.51,3.73-15.54,6.22-23.58,8.49-1.26.22-2.54.42-3.77.65a28.28,28.28,0,0,1-6.66.8,103.12,103.12,0,0,1-31.76-.07c-8.64-.44-16.86-3.58-25.07-6.05-.18-.29-.55-.85-.73-1.13l-1.07.19a113.74,113.74,0,0,1-39.27-26.52l-.16-.15a114.27,114.27,0,0,1-27.05-45.71C621.47,294.78,625.37,260.37,641.83,233ZM887,762.66c-1.5,0-3,.07-4.48.13q-17-100.23-33.94-200.49l4.81.06Q870,662.55,887,762.66Zm-90,0c-1.8.06-3.6.09-5.39.12q29-66.25,58.07-132.51c.87-2.88-.57-5.94-.71-8.86C841.25,638,834.3,655,826.81,671.72c-13.18,30.35-26.54,60.62-39.67,91l-5.61,0,65.85-150-1.56-9L776,762.68c-2.17,0-4,0-4.59.11h-.13L844.51,596,843,587,765.77,762.79h-4.72q40.31-91.74,80.48-183.52c.48-2.81-.6-5.76-1.36-8.47-27.83,64-56,127.79-83.73,191.79-1.77.1-3.53.16-5.28.24-17.33-40-34.4-80.16-51.65-120.23a91.74,91.74,0,0,0-3.85-8.52q-10.95,64.33-21.9,128.66c-1.52,0-3,0-4.52,0q11.29-67.62,22.5-135.25c.5-3.48-1.69-6.62-2.75-9.81q-12.45,72.49-24.8,145c-1.42,0-2.83,0-4.25.08q12.6-75.13,25.26-150.27c.86-3.57-1.81-6.66-2.77-9.93-1.92,8.22-2.89,16.63-4.45,24.92q-11.43,67.62-22.85,135.23c-1.61,0-3.2,0-4.8,0Q664.58,679,678.62,595.23c.15-3.22-1.89-6.1-3.18-8.93q-14.84,88.25-30,176.46c-1.45,0-2.9,0-4.35.07,10.09-61.29,20.68-122.51,30.87-183.78a25.32,25.32,0,0,0-3.59-8.13q-15.93,95.94-32.21,191.82c-1.58,0-3.17,0-4.73,0q16.95-100.21,33.89-200.44l4.92,0q41.85,97.31,83.32,194.77c1-1.7,1.82-3.44,2.62-5.2-27.12-63.14-54-126.38-81.06-189.52,1.64,0,3.3-.05,5-.07q39.38,91.64,78.47,183.39c.87-1.84,1.72-3.68,2.57-5.52q-37.87-88.89-75.6-177.84H691q30.1,70.55,59.91,141.24c4.18,10.07,8.65,20,12.64,30.15a37.18,37.18,0,0,0,3-5.71c-23.65-55.25-47.56-110.4-71.14-165.67h5.21c22.67,53.2,45.62,106.26,68.18,159.51.8-2.18,3.11-4.35,2.09-6.77q-32.73-76.38-65.47-152.75l5.06,0q31.56,74.17,63.34,148.26,32.63-74.12,65.21-148.28h4.65q17.1,100.23,34,200.49c-1.61,0-3.2,0-4.78,0q-10.47-62.34-21.15-124.62C833.27,679.53,815.21,721.12,797,762.65Zm75.9,61a21.56,21.56,0,1,1,21.56-21.55A21.55,21.55,0,0,1,872.91,823.69Zm18.92-61q-17-100.2-34-200.43l4.81,0q16.9,100.25,33.91,200.47C895,762.74,893.4,762.74,891.83,762.74Zm9.27,0q-16.73-100.24-33.65-200.47h4.45q17.16,100.22,34,200.48C904.28,762.77,902.69,762.77,901.1,762.78Zm14.33,0c-1.58,0-3.15,0-4.71-.06q-17-100.2-33.91-200.42h4.7Q898.51,662.53,915.43,762.79Z"/></g></svg>